<?xml version="1.0" encoding="utf-8"?>
<!-- Generator: Adobe Illustrator 26.4.1, SVG Export Plug-In . SVG Version: 6.00 Build 0)  -->
<svg version="1.1" id="Layer_1" xmlns="http://www.w3.org/2000/svg" xmlns:xlink="http://www.w3.org/1999/xlink" x="0px" y="0px"
	 width="312px" height="185px" viewBox="0 0 312 185" style="enable-background:new 0 0 312 185;" xml:space="preserve">
<style type="text/css">
	.st0{fill:#FFFFFF;}
	.st1{fill:#DDDDDD;}
	.st2{fill:#7497D1;}
	.st3{fill:#2ECC72;}
	.st4{fill:#F0C20F;}
	.st5{fill:#ED6A5E;}
	.st6{fill:#FFC31A;}
	.st7{fill:none;stroke:#DDDDDD;stroke-width:2;stroke-linecap:round;stroke-linejoin:round;}
	.st8{fill:#BA9168;}
	.st9{fill:#C69C6D;}
	.st10{fill:#F0F1F2;}
	.st11{fill:#B3B3B3;}
	.st12{fill:#A9A9AA;}
	.st13{fill:#808080;}
	.st14{fill:#777777;}
	.st15{fill:#6D6D6D;}
	.st16{fill:#0C86F4;}
	.st17{fill:#B8B8BC;}
	.st18{fill:#EF4726;}
	.st19{fill:none;}
	.st20{fill:#8DC63F;}
	.st21{fill:#F0F1F2;stroke:#DDDDDD;stroke-width:0.2575;stroke-miterlimit:10;}
	.st22{fill:#FFFFFF;stroke:#CECAC8;stroke-width:0.5199;stroke-miterlimit:10;}
	.st23{fill:#003C66;}
	.st24{fill:#AEAEB2;}
	.st25{fill:#E8400B;}
	.st26{fill:#FFCC00;}
	.st27{fill:#34C759;}
	.st28{fill:#1B8DE4;}
	.st29{fill:#F08A21;}
</style>
<g>
	<g>
		<g>
			<g>
				<path class="st0" d="M367.4,2453c-1.1,0-1.9-0.9-1.9-1.9v-165.8H675v165.8c0,1.1-0.9,1.9-1.9,1.9H367.4z"/>
				<path class="st1" d="M674,2286.3v164.8c0,0.5-0.4,0.9-0.9,0.9H367.4c-0.5,0-0.9-0.4-0.9-0.9v-164.8H674 M676,2284.3H364.5v166.8
					c0,1.6,1.3,2.9,2.9,2.9h305.7c1.6,0,2.9-1.3,2.9-2.9V2284.3L676,2284.3z"/>
			</g>
			<path class="st2" d="M676.2,2286.1v-14c0-1.7-1.3-3.1-2.8-3.1H367c-1.5,0-2.8,1.4-2.8,3.1v14H676.2z"/>
			<path class="st3" d="M649.6,2277.4c0,1.7-1.4,3.2-3.2,3.2c-1.7,0-3.2-1.5-3.2-3.2s1.4-3.2,3.2-3.2
				C648.1,2274.3,649.6,2275.7,649.6,2277.4z"/>
			<path class="st4" d="M660.4,2277.4c0,1.7-1.4,3.2-3.2,3.2c-1.7,0-3.2-1.5-3.2-3.2s1.4-3.2,3.2-3.2
				C659,2274.3,660.4,2275.7,660.4,2277.4z"/>
			<path class="st5" d="M671.4,2277.4c0,1.7-1.4,3.2-3.2,3.2c-1.7,0-3.2-1.5-3.2-3.2s1.4-3.2,3.2-3.2
				C669.9,2274.3,671.4,2275.7,671.4,2277.4z"/>
		</g>
		<path class="st6" d="M571.9,2357.5h-75.5c-3.8,0-6.9-3.1-6.9-6.9l0,0c0-3.8,3.1-6.9,6.9-6.9h75.5c3.8,0,6.9,3.1,6.9,6.9l0,0
			C578.8,2354.4,575.7,2357.5,571.9,2357.5z"/>
		<g id="XMLID_3_">
			<g>
				<g>
					<path class="st7" d="M450.4,2429.1c0,1.9-0.6,3.4-1.3,3.4h-69c-0.7,0-1.3-1.5-1.3-3.4v-122.5c0-1.9,0.6-2.3,1.3-2.3h69
						c0.7,0,1.3,1.5,1.3,3.4V2429.1z"/>
				</g>
			</g>
		</g>
		<g>
			<g>
				<g>
					<path class="st8" d="M393.1,2374h-6.3c-0.3,0-0.5,0.2-0.5,0.5l0.1,15c0,0.3,0.2,0.5,0.5,0.5h6.2L393.1,2374z"/>
					<path class="st9" d="M399.5,2389.9c0.3,0,0.5-0.2,0.5-0.5l-0.1-15c0-0.3-0.2-0.5-0.5-0.5h-6.3v15.9L399.5,2389.9z"/>
					
						<rect x="387" y="2374.7" transform="matrix(1 -4.807305e-03 4.807305e-03 1 -11.4466 1.9175)" class="st10" width="12.3" height="14.6"/>
					<path class="st11" d="M397.4,2375.4v-1.5c0-0.3-0.3-0.6-0.6-0.6h-2.1c0-0.8-0.7-1.4-1.5-1.4v3.5H397.4z"/>
					<path class="st12" d="M393.1,2371.9L393.1,2371.9c-0.8,0-1.5,0.6-1.5,1.4h-2.1c-0.3,0-0.6,0.3-0.6,0.6v1.5h4.3L393.1,2371.9z"
						/>
					
						<rect x="393.1" y="2375.4" transform="matrix(1 -4.821524e-03 4.821524e-03 1 -11.4493 1.9333)" class="st13" width="4.3" height="0.3"/>
					
						<rect x="388.9" y="2375.4" transform="matrix(1 -4.807305e-03 4.807305e-03 1 -11.4156 1.9071)" class="st14" width="4.2" height="0.3"/>
					<path class="st13" d="M393.7,2373.3c0-0.3-0.2-0.5-0.5-0.5v1C393.4,2373.8,393.7,2373.6,393.7,2373.3z"/>
					<path class="st15" d="M393.1,2372.8L393.1,2372.8c-0.3,0-0.5,0.2-0.5,0.5s0.2,0.5,0.5,0.5l0,0V2372.8z"/>
					<g>
						<ellipse class="st16" cx="389.1" cy="2378.4" rx="1.4" ry="1.4"/>
						<path class="st0" d="M388.2,2378.6l0.5-0.3c0,0,0.2,0.3,0.3,0.5c0,0,0.4-1,1-1.2c0,0-0.1,0.5,0,0.6c0,0-0.5,0.3-1,1.1
							C388.9,2379.2,388.4,2378.7,388.2,2378.6z"/>
					</g>
					<g>
						<ellipse class="st16" cx="389.2" cy="2382.3" rx="1.4" ry="1.4"/>
						<path class="st0" d="M388.2,2382.5l0.5-0.3c0,0,0.2,0.3,0.3,0.5c0,0,0.4-1,1-1.2c0,0-0.1,0.5,0,0.6c0,0-0.5,0.3-1,1.1
							C389,2383.1,388.4,2382.6,388.2,2382.5z"/>
					</g>
					<g>
						<ellipse class="st16" cx="389.2" cy="2386.4" rx="1.4" ry="1.4"/>
						<path class="st0" d="M388.2,2386.7l0.5-0.3c0,0,0.2,0.3,0.3,0.5c0,0,0.4-1,1-1.2c0,0-0.1,0.5,0,0.6c0,0-0.5,0.3-1,1.1
							C389,2387.3,388.5,2386.7,388.2,2386.7z"/>
					</g>
					<g>
						
							<rect x="391.1" y="2377.6" transform="matrix(1 -4.807305e-03 4.807305e-03 1 -11.4266 1.9252)" class="st17" width="7.3" height="0.5"/>
						
							<rect x="391.1" y="2378.6" transform="matrix(1 -4.807305e-03 4.807305e-03 1 -11.4314 1.9252)" class="st17" width="7.3" height="0.5"/>
					</g>
					<g>
						
							<rect x="391.1" y="2381.5" transform="matrix(1 -4.807305e-03 4.807305e-03 1 -11.4454 1.9252)" class="st17" width="7.3" height="0.5"/>
						
							<rect x="391.1" y="2382.5" transform="matrix(1 -4.807305e-03 4.807305e-03 1 -11.4502 1.9252)" class="st17" width="7.3" height="0.5"/>
					</g>
					<g>
						
							<rect x="391.2" y="2385.7" transform="matrix(1 -4.807305e-03 4.807305e-03 1 -11.4656 1.9258)" class="st17" width="7.3" height="0.5"/>
						
							<rect x="391.2" y="2386.7" transform="matrix(1 -4.807305e-03 4.807305e-03 1 -11.4704 1.9258)" class="st17" width="7.3" height="0.5"/>
					</g>
				</g>
			</g>
		</g>
		<path class="st6" d="M436.5,2417.3h-25.6c-2.3,0-4.2-1.9-4.2-4.2l0,0c0-2.3,1.9-4.2,4.2-4.2h25.6c2.3,0,4.2,1.9,4.2,4.2l0,0
			C440.8,2415.4,438.9,2417.3,436.5,2417.3z"/>
		<g>
			<path class="st18" d="M436.5,2384.2h-25.6c-2.3,0-4.2-1.9-4.2-4.2l0,0c0-2.3,1.9-4.2,4.2-4.2h25.6c2.3,0,4.2,1.9,4.2,4.2l0,0
				C440.8,2382.3,438.9,2384.2,436.5,2384.2z"/>
			<g>
				<rect x="410.4" y="2378.2" class="st19" width="26.6" height="3.6"/>
				<path class="st0" d="M417.3,2380.1c0,0.5-0.1,1-0.4,1.3s-0.7,0.5-1.2,0.5s-0.9-0.2-1.2-0.5c-0.3-0.3-0.4-0.7-0.4-1.3
					s0.1-1,0.4-1.3s0.7-0.4,1.2-0.4s0.9,0.2,1.2,0.5C417.2,2379.1,417.3,2379.5,417.3,2380.1z M414.7,2380.1c0,0.4,0.1,0.7,0.3,0.9
					c0.2,0.2,0.4,0.3,0.7,0.3c0.3,0,0.6-0.1,0.7-0.3c0.2-0.2,0.2-0.5,0.2-0.9s-0.1-0.7-0.2-0.9s-0.4-0.3-0.7-0.3
					c-0.3,0-0.6,0.1-0.8,0.3C414.8,2379.3,414.7,2379.6,414.7,2380.1z"/>
				<path class="st0" d="M418.6,2381.8l-1-2.6h0.6l0.5,1.5c0.1,0.2,0.1,0.5,0.2,0.6l0,0c0-0.1,0.1-0.3,0.2-0.6l0.5-1.5h0.6l-1,2.6
					H418.6z"/>
				<path class="st0" d="M421.6,2381.8c-0.4,0-0.7-0.1-0.9-0.3c-0.2-0.2-0.3-0.6-0.3-1s0.1-0.7,0.3-1c0.2-0.2,0.5-0.4,0.9-0.4
					c0.3,0,0.6,0.1,0.8,0.3c0.2,0.2,0.3,0.5,0.3,0.8v0.3H421c0,0.2,0.1,0.4,0.2,0.6c0.1,0.1,0.3,0.2,0.5,0.2s0.3,0,0.4,0
					s0.3-0.1,0.4-0.1v0.4c-0.1,0.1-0.3,0.1-0.4,0.1S421.8,2381.8,421.6,2381.8z M421.5,2379.6c-0.2,0-0.3,0.1-0.4,0.2
					c-0.1,0.1-0.2,0.3-0.2,0.5h1.2c0-0.2-0.1-0.4-0.2-0.5S421.7,2379.6,421.5,2379.6z"/>
				<path class="st0" d="M424.5,2379.2c0.1,0,0.2,0,0.3,0l-0.1,0.5c-0.1,0-0.2,0-0.2,0c-0.2,0-0.4,0.1-0.5,0.2s-0.2,0.3-0.2,0.6v1.3
					h-0.5v-2.6h0.4l0.1,0.5l0,0c0.1-0.2,0.2-0.3,0.3-0.4C424.2,2379.2,424.4,2379.2,424.5,2379.2z"/>
				<path class="st0" d="M426.2,2381.8c-0.3,0-0.6-0.1-0.7-0.3c-0.2-0.2-0.3-0.6-0.3-1s0.1-0.7,0.3-1c0.2-0.2,0.4-0.3,0.8-0.3
					c0.3,0,0.6,0.1,0.8,0.4l0,0c0-0.2,0-0.3,0-0.4v-0.9h0.5v3.6H427l-0.1-0.3l0,0C426.7,2381.7,426.5,2381.8,426.2,2381.8z
					 M426.3,2381.4c0.2,0,0.4-0.1,0.5-0.2c0.1-0.1,0.2-0.3,0.2-0.6v-0.1c0-0.3-0.1-0.6-0.2-0.7c-0.1-0.1-0.3-0.2-0.5-0.2
					s-0.3,0.1-0.4,0.2c-0.1,0.2-0.2,0.4-0.2,0.7s0,0.5,0.2,0.6C425.9,2381.3,426.1,2381.4,426.3,2381.4z"/>
				<path class="st0" d="M430,2381.8l-0.1-0.3l0,0c-0.1,0.1-0.2,0.2-0.3,0.3c-0.1,0.1-0.3,0.1-0.5,0.1c-0.3,0-0.5-0.1-0.7-0.2
					s-0.2-0.4-0.2-0.7v-1.7h0.5v1.6c0,0.2,0,0.3,0.1,0.4s0.2,0.1,0.4,0.1c0.2,0,0.4-0.1,0.5-0.2c0.1-0.1,0.2-0.4,0.2-0.7v-1.3h0.5
					v2.6L430,2381.8L430,2381.8z"/>
				<path class="st0" d="M432.4,2381.8c-0.4,0-0.7-0.1-0.9-0.3c-0.2-0.2-0.3-0.6-0.3-1s0.1-0.7,0.3-1c0.2-0.2,0.5-0.4,0.9-0.4
					c0.3,0,0.6,0.1,0.8,0.3c0.2,0.2,0.3,0.5,0.3,0.8v0.3h-1.7c0,0.2,0.1,0.4,0.2,0.6c0.1,0.1,0.3,0.2,0.5,0.2s0.3,0,0.4,0
					s0.3-0.1,0.4-0.1v0.4c-0.1,0.1-0.3,0.1-0.4,0.1S432.5,2381.8,432.4,2381.8z M432.3,2379.6c-0.2,0-0.3,0.1-0.4,0.2
					c-0.1,0.1-0.2,0.3-0.2,0.5h1.2c0-0.2-0.1-0.4-0.2-0.5S432.4,2379.6,432.3,2379.6z"/>
			</g>
		</g>
		<g>
			<path class="st16" d="M436.5,2325.4h-25.6c-2.3,0-4.2-1.9-4.2-4.2l0,0c0-2.3,1.9-4.2,4.2-4.2h25.6c2.3,0,4.2,1.9,4.2,4.2l0,0
				C440.8,2323.5,438.9,2325.4,436.5,2325.4z"/>
		</g>
		<g>
			<g>
				<g>
					<path class="st8" d="M393.1,2314.3h-6.3c-0.3,0-0.5,0.2-0.5,0.5l0.1,15c0,0.3,0.2,0.5,0.5,0.5h6.2L393.1,2314.3z"/>
					<path class="st9" d="M399.5,2330.1c0.3,0,0.5-0.2,0.5-0.5l-0.1-15c0-0.3-0.2-0.5-0.5-0.5h-6.3v15.9L399.5,2330.1z"/>
					
						<rect x="387" y="2315" transform="matrix(1 -4.807305e-03 4.807305e-03 1 -11.1596 1.9168)" class="st10" width="12.3" height="14.6"/>
					<path class="st11" d="M397.4,2315.7v-1.5c0-0.3-0.3-0.6-0.6-0.6h-2.1c0-0.8-0.7-1.4-1.5-1.4v3.5H397.4z"/>
					<path class="st12" d="M393.1,2312.2L393.1,2312.2c-0.8,0-1.5,0.6-1.5,1.4h-2.1c-0.3,0-0.6,0.3-0.6,0.6v1.5h4.3L393.1,2312.2z"
						/>
					
						<rect x="393.1" y="2315.7" transform="matrix(1 -4.821524e-03 4.821524e-03 1 -11.1615 1.9326)" class="st13" width="4.3" height="0.3"/>
					
						<rect x="388.9" y="2315.7" transform="matrix(1 -4.807305e-03 4.807305e-03 1 -11.1286 1.9064)" class="st14" width="4.2" height="0.3"/>
					<path class="st13" d="M393.7,2313.6c0-0.3-0.2-0.5-0.5-0.5v1C393.4,2314.1,393.7,2313.9,393.7,2313.6z"/>
					<path class="st15" d="M393.1,2313.1L393.1,2313.1c-0.3,0-0.5,0.2-0.5,0.5s0.2,0.5,0.5,0.5l0,0V2313.1z"/>
					<g>
						<ellipse class="st16" cx="389.1" cy="2318.6" rx="1.4" ry="1.4"/>
						<path class="st0" d="M388.2,2318.9l0.5-0.3c0,0,0.2,0.3,0.3,0.5c0,0,0.4-1,1-1.2c0,0-0.1,0.5,0,0.6c0,0-0.5,0.3-1,1.1
							C388.9,2319.5,388.4,2318.9,388.2,2318.9z"/>
					</g>
					<g>
						<ellipse class="st16" cx="389.2" cy="2322.6" rx="1.4" ry="1.4"/>
						<path class="st0" d="M388.2,2322.8l0.5-0.3c0,0,0.2,0.3,0.3,0.5c0,0,0.4-1,1-1.2c0,0-0.1,0.5,0,0.6c0,0-0.5,0.3-1,1.1
							C389,2323.4,388.4,2322.9,388.2,2322.8z"/>
					</g>
					<g>
						<ellipse class="st16" cx="389.2" cy="2326.7" rx="1.4" ry="1.4"/>
						<path class="st0" d="M388.2,2327l0.5-0.3c0,0,0.2,0.3,0.3,0.5c0,0,0.4-1,1-1.2c0,0-0.1,0.5,0,0.6c0,0-0.5,0.3-1,1.1
							C389,2327.6,388.5,2327,388.2,2327z"/>
					</g>
					<g>
						
							<rect x="391.1" y="2317.9" transform="matrix(1 -4.807305e-03 4.807305e-03 1 -11.1396 1.9245)" class="st17" width="7.3" height="0.5"/>
						
							<rect x="391.1" y="2318.9" transform="matrix(1 -4.807305e-03 4.807305e-03 1 -11.1444 1.9245)" class="st17" width="7.3" height="0.5"/>
					</g>
					<g>
						
							<rect x="391.1" y="2321.8" transform="matrix(1 -4.807305e-03 4.807305e-03 1 -11.1584 1.9245)" class="st17" width="7.3" height="0.5"/>
						
							<rect x="391.1" y="2322.8" transform="matrix(1 -4.807305e-03 4.807305e-03 1 -11.1632 1.9245)" class="st17" width="7.3" height="0.5"/>
					</g>
					<g>
						
							<rect x="391.2" y="2325.9" transform="matrix(1 -4.807305e-03 4.807305e-03 1 -11.1781 1.9251)" class="st17" width="7.3" height="0.5"/>
						
							<rect x="391.2" y="2327" transform="matrix(1 -4.807305e-03 4.807305e-03 1 -11.1834 1.9251)" class="st17" width="7.3" height="0.5"/>
					</g>
				</g>
			</g>
		</g>
		<g>
			<path class="st6" d="M436.5,2354.8h-25.6c-2.3,0-4.2-1.9-4.2-4.2l0,0c0-2.3,1.9-4.2,4.2-4.2h25.6c2.3,0,4.2,1.9,4.2,4.2l0,0
				C440.8,2352.9,438.9,2354.8,436.5,2354.8z"/>
			<g>
				<rect x="410.4" y="2348.8" class="st19" width="26.6" height="3.6"/>
				<path class="st0" d="M411.4,2352.4v-3.4h0.6v3.4H411.4z"/>
				<path class="st0" d="M415,2352.4h-0.5v-1.6c0-0.2,0-0.3-0.1-0.4c-0.1-0.1-0.2-0.1-0.4-0.1c-0.2,0-0.4,0.1-0.5,0.2
					c-0.1,0.1-0.2,0.4-0.2,0.7v1.3h-0.5v-2.6h0.4l0.1,0.3l0,0c0.1-0.1,0.2-0.2,0.3-0.3c0.1-0.1,0.3-0.1,0.5-0.1
					c0.6,0,0.9,0.3,0.9,0.9L415,2352.4L415,2352.4z"/>
				<path class="st0" d="M419.3,2350c0,0.4-0.1,0.6-0.3,0.8c-0.2,0.2-0.6,0.3-1,0.3h-0.4v1.3H417v-3.4h1c0.4,0,0.7,0.1,0.9,0.3
					C419.2,2349.4,419.3,2349.7,419.3,2350z M417.6,2350.7h0.3c0.3,0,0.5,0,0.6-0.1s0.2-0.3,0.2-0.5s-0.1-0.3-0.2-0.4
					c-0.1-0.1-0.3-0.1-0.6-0.1h-0.4v1.1H417.6z"/>
				<path class="st0" d="M421.2,2349.8c0.1,0,0.2,0,0.3,0l-0.1,0.5c-0.1,0-0.2,0-0.2,0c-0.2,0-0.4,0.1-0.5,0.2s-0.2,0.3-0.2,0.6v1.3
					H420v-2.6h0.4l0.1,0.5l0,0c0.1-0.2,0.2-0.3,0.3-0.4C420.9,2349.8,421.1,2349.8,421.2,2349.8z"/>
				<path class="st0" d="M424.3,2351.1c0,0.4-0.1,0.7-0.3,1c-0.2,0.2-0.5,0.4-0.9,0.4c-0.2,0-0.4-0.1-0.6-0.2s-0.3-0.3-0.4-0.5
					s-0.1-0.4-0.1-0.7c0-0.4,0.1-0.7,0.3-1s0.5-0.3,0.9-0.3s0.7,0.1,0.9,0.4C424.1,2350.4,424.3,2350.7,424.3,2351.1z M422.4,2351.1
					c0,0.6,0.2,0.9,0.7,0.9c0.4,0,0.6-0.3,0.6-0.9c0-0.6-0.2-0.9-0.7-0.9c-0.2,0-0.4,0.1-0.5,0.2
					C422.4,2350.6,422.4,2350.8,422.4,2351.1z"/>
				<path class="st0" d="M427,2349.8v0.3l-0.4,0.1c0,0.1,0.1,0.1,0.1,0.2c0,0.1,0,0.2,0,0.2c0,0.3-0.1,0.5-0.3,0.6
					c-0.2,0.2-0.4,0.2-0.8,0.2c-0.1,0-0.2,0-0.2,0c-0.1,0.1-0.2,0.2-0.2,0.3s0,0.1,0.1,0.1s0.2,0,0.3,0h0.4c0.3,0,0.5,0.1,0.6,0.2
					c0.1,0.1,0.2,0.3,0.2,0.5c0,0.3-0.1,0.5-0.4,0.7c-0.2,0.2-0.6,0.2-1,0.2c-0.3,0-0.6-0.1-0.8-0.2s-0.3-0.3-0.3-0.5s0-0.3,0.1-0.4
					c0.1-0.1,0.2-0.2,0.4-0.2c-0.1,0-0.1-0.1-0.2-0.1s-0.1-0.1-0.1-0.2c0-0.1,0-0.2,0.1-0.2c0.1-0.1,0.1-0.1,0.2-0.2
					c-0.1-0.1-0.2-0.1-0.3-0.3c-0.1-0.1-0.1-0.3-0.1-0.5c0-0.3,0.1-0.5,0.3-0.6c0.2-0.2,0.4-0.2,0.7-0.2c0.1,0,0.1,0,0.2,0
					s0.1,0,0.2,0L427,2349.8L427,2349.8z M425,2352.8c0,0.1,0.1,0.2,0.2,0.3s0.3,0.1,0.4,0.1c0.3,0,0.5,0,0.7-0.1
					c0.1-0.1,0.2-0.2,0.2-0.3s0-0.2-0.1-0.2s-0.2-0.1-0.4-0.1h-0.4c-0.2,0-0.3,0-0.4,0.1S425,2352.7,425,2352.8z M425.3,2350.7
					c0,0.2,0,0.3,0.1,0.4c0.1,0.1,0.2,0.1,0.4,0.1c0.3,0,0.5-0.2,0.5-0.5c0-0.2,0-0.3-0.1-0.4c-0.1-0.1-0.2-0.1-0.4-0.1
					c-0.2,0-0.3,0-0.4,0.1S425.3,2350.5,425.3,2350.7z"/>
				<path class="st0" d="M428.8,2349.8c0.1,0,0.2,0,0.3,0l-0.1,0.5c-0.1,0-0.2,0-0.2,0c-0.2,0-0.4,0.1-0.5,0.2s-0.2,0.3-0.2,0.6v1.3
					h-0.5v-2.6h0.4l0.1,0.5l0,0c0.1-0.2,0.2-0.3,0.3-0.4C428.5,2349.8,428.6,2349.8,428.8,2349.8z"/>
				<path class="st0" d="M430.7,2352.4c-0.4,0-0.7-0.1-0.9-0.3c-0.2-0.2-0.3-0.6-0.3-1s0.1-0.7,0.3-1c0.2-0.2,0.5-0.4,0.9-0.4
					c0.3,0,0.6,0.1,0.8,0.3c0.2,0.2,0.3,0.5,0.3,0.8v0.3H430c0,0.2,0.1,0.4,0.2,0.6c0.1,0.1,0.3,0.2,0.5,0.2s0.3,0,0.4,0
					s0.3-0.1,0.4-0.1v0.4c-0.1,0.1-0.3,0.1-0.4,0.1S430.8,2352.4,430.7,2352.4z M430.6,2350.2c-0.2,0-0.3,0.1-0.4,0.2
					c-0.1,0.1-0.2,0.3-0.2,0.5h1.2c0-0.2-0.1-0.4-0.2-0.5S430.7,2350.2,430.6,2350.2z"/>
				<path class="st0" d="M434,2351.7c0,0.2-0.1,0.4-0.3,0.6s-0.4,0.2-0.8,0.2c-0.3,0-0.6-0.1-0.8-0.2v-0.5c0.3,0.1,0.6,0.2,0.8,0.2
					c0.3,0,0.5-0.1,0.5-0.3c0-0.1,0-0.1-0.1-0.2c0,0-0.1-0.1-0.2-0.1s-0.2-0.1-0.4-0.2c-0.3-0.1-0.5-0.2-0.6-0.3s-0.2-0.3-0.2-0.4
					c0-0.2,0.1-0.4,0.3-0.5c0.2-0.1,0.4-0.2,0.7-0.2c0.3,0,0.6,0.1,0.9,0.2l-0.2,0.4c-0.3-0.1-0.5-0.2-0.7-0.2
					c-0.3,0-0.4,0.1-0.4,0.2c0,0.1,0,0.1,0.1,0.2c0.1,0.1,0.2,0.1,0.5,0.2c0.2,0.1,0.4,0.2,0.5,0.2s0.2,0.1,0.2,0.2
					C434,2351.4,434,2351.5,434,2351.7z"/>
				<path class="st0" d="M436.3,2351.7c0,0.2-0.1,0.4-0.3,0.6s-0.4,0.2-0.8,0.2c-0.3,0-0.6-0.1-0.8-0.2v-0.5
					c0.3,0.1,0.6,0.2,0.8,0.2c0.3,0,0.5-0.1,0.5-0.3c0-0.1,0-0.1-0.1-0.2c0,0-0.1-0.1-0.2-0.1s-0.2-0.1-0.4-0.2
					c-0.3-0.1-0.5-0.2-0.6-0.3s-0.2-0.3-0.2-0.4c0-0.2,0.1-0.4,0.3-0.5c0.2-0.1,0.4-0.2,0.7-0.2c0.3,0,0.6,0.1,0.9,0.2l-0.2,0.4
					c-0.3-0.1-0.5-0.2-0.7-0.2c-0.3,0-0.4,0.1-0.4,0.2c0,0.1,0,0.1,0.1,0.2c0.1,0.1,0.2,0.1,0.5,0.2c0.2,0.1,0.4,0.2,0.5,0.2
					s0.2,0.1,0.2,0.2C436.3,2351.4,436.3,2351.5,436.3,2351.7z"/>
			</g>
		</g>
		<g>
			<path class="st20" d="M436.5,2354.7h-25.6c-2.3,0-4.2-1.9-4.2-4.2l0,0c0-2.3,1.9-4.2,4.2-4.2h25.6c2.3,0,4.2,1.9,4.2,4.2l0,0
				C440.8,2352.8,438.9,2354.7,436.5,2354.7z"/>
		</g>
		<path class="st18" d="M436.5,2385.1h-25.6c-2.3,0-4.2-1.9-4.2-4.2l0,0c0-2.3,1.9-4.2,4.2-4.2h25.6c2.3,0,4.2,1.9,4.2,4.2l0,0
			C440.8,2383.2,438.9,2385.1,436.5,2385.1z"/>
		<g>
			<rect x="479.4" y="2304.7" class="st1" width="2" height="127.2"/>
		</g>
		<g>
			<rect x="506" y="2304.7" class="st1" width="2" height="127.2"/>
		</g>
		<g>
			<rect x="532.5" y="2304.7" class="st1" width="2" height="127.2"/>
		</g>
		<g>
			<rect x="559" y="2304.7" class="st1" width="2" height="127.2"/>
		</g>
		<g>
			<rect x="585.6" y="2304.7" class="st1" width="2" height="127.2"/>
		</g>
		<g>
			<rect x="612.1" y="2304.7" class="st1" width="2" height="127.2"/>
		</g>
		<g>
			<rect x="638.6" y="2304.7" class="st1" width="2" height="127.2"/>
		</g>
		<path class="st16" d="M643.6,2328.1H471.4c-3.8,0-6.9-3.1-6.9-6.9l0,0c0-3.8,3.1-6.9,6.9-6.9h172.2c3.8,0,6.9,3.1,6.9,6.9l0,0
			C650.5,2325,647.3,2328.1,643.6,2328.1z"/>
		<path class="st20" d="M571.9,2357.5h-75.5c-3.8,0-6.9-3.1-6.9-6.9l0,0c0-3.8,3.1-6.9,6.9-6.9h75.5c3.8,0,6.9,3.1,6.9,6.9l0,0
			C578.8,2354.4,575.7,2357.5,571.9,2357.5z"/>
		<path class="st18" d="M539.1,2386.9h-61.2c-3.8,0-6.9-3.1-6.9-6.9l0,0c0-3.8,3.1-6.9,6.9-6.9h61.2c3.8,0,6.9,3.1,6.9,6.9l0,0
			C546,2383.8,542.9,2386.9,539.1,2386.9z"/>
		<path class="st6" d="M595.7,2421.5h-65.1c-3.8,0-6.9-3.1-6.9-6.9l0,0c0-3.8,3.1-6.9,6.9-6.9h65.1c3.8,0,6.9,3.1,6.9,6.9l0,0
			C602.6,2418.4,599.5,2421.5,595.7,2421.5z"/>
		<g>
			<path class="st21" d="M400.3,2344.7v14.6c0,0.1-0.1,0.2-0.2,0.2h-13.5c-0.1,0-0.2-0.1-0.2-0.2v-17.5c0-0.2,0.1-0.3,0.3-0.3h10.4
				L400.3,2344.7z"/>
			<polyline class="st21" points="400.3,2344.8 397,2344.8 397,2341.6 			"/>
			<rect x="387.8" y="2343.2" class="st16" width="5.6" height="4.5"/>
			<rect x="387.7" y="2348.9" class="st17" width="11.2" height="0.5"/>
			<rect x="394.4" y="2347.1" class="st17" width="4.5" height="0.5"/>
			<rect x="394.4" y="2345.5" class="st17" width="4.5" height="0.5"/>
			<rect x="387.7" y="2350.6" class="st17" width="11.2" height="0.5"/>
			<rect x="387.7" y="2352.4" class="st17" width="11.2" height="0.5"/>
			<rect x="387.7" y="2354.1" class="st17" width="11.2" height="0.5"/>
			<rect x="387.7" y="2355.9" class="st17" width="11.2" height="0.5"/>
			<rect x="387.7" y="2357.6" class="st17" width="11.2" height="0.5"/>
		</g>
		<g>
			<path class="st21" d="M400.3,2407.2v14.6c0,0.1-0.1,0.2-0.2,0.2h-13.5c-0.1,0-0.2-0.1-0.2-0.2v-17.5c0-0.2,0.1-0.3,0.3-0.3h10.4
				L400.3,2407.2z"/>
			<polyline class="st21" points="400.3,2407.4 397,2407.4 397,2404.1 			"/>
			<rect x="387.8" y="2405.8" class="st16" width="5.6" height="4.5"/>
			<rect x="387.7" y="2411.5" class="st17" width="11.2" height="0.5"/>
			<rect x="394.4" y="2409.7" class="st17" width="4.5" height="0.5"/>
			<rect x="394.4" y="2408.1" class="st17" width="4.5" height="0.5"/>
			<rect x="387.7" y="2413.2" class="st17" width="11.2" height="0.5"/>
			<rect x="387.7" y="2415" class="st17" width="11.2" height="0.5"/>
			<rect x="387.7" y="2416.7" class="st17" width="11.2" height="0.5"/>
			<rect x="387.7" y="2418.4" class="st17" width="11.2" height="0.5"/>
			<rect x="387.7" y="2420.2" class="st17" width="11.2" height="0.5"/>
		</g>
	</g>
	<ellipse class="st22" cx="643.1" cy="2321.4" rx="5" ry="5"/>
	<ellipse class="st22" cx="571.8" cy="2351" rx="5" ry="5"/>
	<ellipse class="st22" cx="538.8" cy="2380" rx="5" ry="5"/>
	<ellipse class="st22" cx="595.8" cy="2415" rx="5" ry="5"/>
</g>
<g>
	<g>
		<path class="st0" d="M3.2,184c-1.1,0-1.9-0.9-1.9-1.9V16.3h309.5v165.8c0,1.1-0.9,1.9-1.9,1.9H3.2z"/>
		<path class="st1" d="M309.8,17.3v164.8c0,0.5-0.4,0.9-0.9,0.9H3.2c-0.5,0-0.9-0.4-0.9-0.9V17.3H309.8 M311.8,15.3H0.2v166.8
			c0,1.6,1.3,2.9,2.9,2.9h305.7c1.6,0,2.9-1.3,2.9-2.9L311.8,15.3L311.8,15.3z"/>
	</g>
	<path class="st23" d="M312,17.1v-14c0-1.7-1.3-3.1-2.8-3.1H2.8C1.3,0,0,1.4,0,3.1v14H312z"/>
</g>
<g>
	<rect x="164.3" y="34.7" class="st1" width="2" height="136.7"/>
</g>
<g>
	<rect x="191.4" y="34.7" class="st1" width="2" height="136.7"/>
</g>
<g>
	<rect x="218.6" y="34.7" class="st1" width="2" height="136.7"/>
</g>
<g>
	<rect x="245.8" y="34.7" class="st1" width="2" height="136.7"/>
</g>
<g>
	<rect x="273" y="34.7" class="st1" width="2" height="136.7"/>
</g>
<g>
	<g>
		<path class="st24" d="M21.2,79.8c-2.8-6.4-3.5-13.4-2.2-20.3l34.4,6.6L21.2,79.8z"/>
		<path class="st25" d="M67.2,98.2c-17.8,7.7-38.3-0.6-46-18.3L53.3,66L67.2,98.2z"/>
		<path class="st26" d="M86.8,76.6c-3.1,9.6-10.2,17.5-19.6,21.5L53.3,66L86.8,76.6z"/>
		<path class="st27" d="M49,31.3c11.9-1.5,23.6,3.1,31.3,12.3s10.1,21.7,6.4,33L53.5,66L49,31.3z"/>
		<path class="st28" d="M49,31.3c0,0-26.9,3.5-30.1,28.3l34.5,6.7L49,31.3z"/>
	</g>
	<rect x="97.9" y="34.7" class="st25" width="7.7" height="7.7"/>
	<rect x="97.9" y="47.7" class="st26" width="7.7" height="7.7"/>
	<rect x="97.9" y="60.6" class="st27" width="7.7" height="7.7"/>
	<rect x="97.9" y="73.5" class="st28" width="7.7" height="7.7"/>
	<rect x="97.9" y="86.4" class="st24" width="7.7" height="7.7"/>
	<rect x="108.7" y="37.2" class="st1" width="23.8" height="2.7"/>
	<rect x="108.7" y="50.2" class="st1" width="23.8" height="2.7"/>
	<rect x="108.7" y="63.1" class="st1" width="23.8" height="2.7"/>
	<rect x="108.7" y="76" class="st1" width="23.8" height="2.7"/>
	<rect x="108.7" y="89" class="st1" width="23.8" height="2.7"/>
</g>
<g>
	<rect x="41.6" y="120.8" class="st1" width="23.8" height="2.7"/>
	<rect x="41.6" y="127.6" class="st1" width="91" height="2.7"/>
</g>
<g>
	<rect x="41.6" y="151.5" class="st1" width="23.8" height="2.7"/>
	<rect x="41.6" y="158.3" class="st1" width="91" height="2.7"/>
</g>
<path class="st28" d="M285,66.2H152.9c-4.8,0-8.7-3.9-8.7-8.7l0,0c0-4.8,3.9-8.7,8.7-8.7H285c4.8,0,8.7,3.9,8.7,8.7l0,0
	C293.7,62.3,289.8,66.2,285,66.2z"/>
<path class="st29" d="M243.1,101.6h-54.4c-4.8,0-8.7-3.9-8.7-8.7l0,0c0-4.8,3.9-8.7,8.7-8.7h54.4c4.8,0,8.7,3.9,8.7,8.7l0,0
	C251.8,97.7,247.9,101.6,243.1,101.6z"/>
<path class="st26" d="M256.7,133.7H152.9c-4.8,0-8.7-3.9-8.7-8.7l0,0c0-4.8,3.9-8.7,8.7-8.7h103.8c4.8,0,8.7,3.9,8.7,8.7l0,0
	C265.4,129.8,261.5,133.7,256.7,133.7z"/>
<path class="st27" d="M285,164H175.2c-4.8,0-8.7-3.9-8.7-8.7l0,0c0-4.8,3.9-8.7,8.7-8.7H285c4.8,0,8.7,3.9,8.7,8.7l0,0
	C293.7,160.1,289.8,164,285,164z"/>
<path class="st28" d="M34.6,116.5h-1.4c-0.5-0.6-1.1-1-1.9-1h-6.7c-0.8,0-1.4,0.4-1.9,1h-1.4c-1,0-1.9,0.9-1.9,1.9v15.2
	c0,1,0.9,1.9,1.9,1.9h13.3c1,0,1.9-0.9,1.9-1.9v-15.2C36.5,117.4,35.6,116.5,34.6,116.5z M24.6,117.5h6.7c0.2,0,0.5,0.3,0.5,0.5
	s-0.3,0.5-0.5,0.5h-6.7c-0.2,0-0.5-0.3-0.5-0.5S24.4,117.5,24.6,117.5z M32.5,123.8l-4.3,6.7c-0.2,0.2-0.4,0.4-0.8,0.3
	c-0.2,0-0.5-0.1-0.7-0.2l-3.3-2.9c-0.4-0.4-0.5-1-0.1-1.3c0.4-0.4,1-0.5,1.3-0.1l2.5,2.2l3.7-5.7c0.3-0.5,0.9-0.6,1.3-0.3
	C32.7,122.8,32.8,123.4,32.5,123.8z"/>
<path class="st28" d="M34.6,147.4h-1.4c-0.5-0.6-1.1-1-1.9-1h-6.7c-0.8,0-1.4,0.4-1.9,1h-1.4c-1,0-1.9,0.9-1.9,1.9v15.2
	c0,1,0.9,1.9,1.9,1.9h13.3c1,0,1.9-0.9,1.9-1.9v-15.2C36.5,148.2,35.6,147.4,34.6,147.4z M24.6,148.3h6.7c0.2,0,0.5,0.3,0.5,0.5
	s-0.3,0.5-0.5,0.5h-6.7c-0.2,0-0.5-0.3-0.5-0.5S24.4,148.3,24.6,148.3z M32.5,154.7l-4.3,6.7c-0.2,0.2-0.4,0.4-0.8,0.3
	c-0.2,0-0.5-0.1-0.7-0.2l-3.3-2.9c-0.4-0.4-0.5-1-0.1-1.3c0.4-0.4,1-0.5,1.3-0.1l2.5,2.2l3.7-5.7c0.3-0.5,0.9-0.6,1.3-0.3
	C32.7,153.7,32.8,154.2,32.5,154.7z"/>
</svg>
